<?xml version="1.0" standalone="no"?><!DOCTYPE svg PUBLIC "-//W3C//DTD SVG 1.1//EN" "http://www.w3.org/Graphics/SVG/1.1/DTD/svg11.dtd"><svg t="1670908022395" class="icon" viewBox="0 0 1024 1024" version="1.1" xmlns="http://www.w3.org/2000/svg" p-id="15825" xmlns:xlink="http://www.w3.org/1999/xlink" width="200" height="200"><path d="M799.6 406c-1.6-34.2-6.6-69-21.6-100.2-8.2-17.2-19.4-33-33-46.4-12.6-12.8-27.2-23.4-42.6-32.6-34.2-20.4-75-34-168.8-62S384 128 384 128l0 716.6 159.8 51.4c0 0 0.2-397.6 0.2-599l0-7.6c0-18.6 15-33.6 32.2-33.6l1 0c17 0 31 15 31 33.6l0 4.4 0 262.2c22 10.6 58.4 18.6 83.6 18.2 16.6 0.4 33.4-3.4 48-11.4 15.2-8.2 27.8-20.8 36.8-35.6 10.2-16.6 16.4-35.6 19.8-54.6C800.2 451 800.4 428.4 799.6 406z" p-id="15826" fill="#2c2c2c"></path><path d="M173.4 715.6c54.8-19.6 178.6-59 178.6-59l0-94.4c0 0-153 49.6-222.6 74.2-17.2 6.2-34.6 11.8-51.4 19-19.6 8.2-38.8 17.4-56.2 29.6-7.6 5.2-14.4 11.8-18.4 20.2-4 8.4-4.4 18.4-1 27.2 4 10.2 11.6 18.6 20.2 25.2 15.6 11.8 34.2 19 52.8 24.4 56.8 18.8 116.8 28 176.8 26.6 29-0.4 72-3.8 100-8.8l0-84c0 0-22 5-82.6 25-9.2 3-18.4 6.6-28 8.6-14.2 3.2-28.8 4.2-43.2 4.4-13-0.6-26.4-1.4-38.6-6.2-4.4-2-9.2-4.4-11-9.2-1.6-4 0.6-8 3.4-10.8C157.8 721.8 165.8 718.6 173.4 715.6z" p-id="15827" fill="#2c2c2c"></path><path d="M1024 691.8c-0.2-12-7.4-22.4-15.8-30-14.2-12.6-31.8-20.6-49.4-27-11-3.8-18.6-6.6-29.4-10-50.4-16.4-103.8-22.4-156.6-22.6-16 0.6-46.2 1-62 2.8-43.8 5-134.6 30.8-134.6 30.8l0 97.6c0 0 135-43.2 193-63.6 19.4-6.6 40.2-9.2 60.6-9.2 13 0.4 26.4 1.4 38.8 6.2 4.4 1.8 9 4.4 11 9 1.8 5.2-1.8 10-5.8 13-9.4 7.6-21.4 10.6-32.4 14.8C759.4 732.6 576 793 576 793l0 94c0 0 234.4-79.2 341.6-117.6 17.8-6.6 35.8-12.2 52.8-20.8 15.8-8 31.6-17.2 43.6-30.6C1020.2 710.8 1024 702 1024 691.8z" p-id="15828" fill="#2c2c2c"></path></svg>