<?xml version="1.0" standalone="no"?><!DOCTYPE svg PUBLIC "-//W3C//DTD SVG 1.1//EN" "http://www.w3.org/Graphics/SVG/1.1/DTD/svg11.dtd"><svg t="1670908077673" class="icon" viewBox="0 0 1024 1024" version="1.1" xmlns="http://www.w3.org/2000/svg" p-id="20393" xmlns:xlink="http://www.w3.org/1999/xlink" width="200" height="200"><path d="M253.6 496.6c79.4-117.2 155.8-185.6 155.8-185.6s-84.2-97.8-185.6-134.8l-6.6-1.6C123.4 256.8 64 377.4 64 512c0 101.4 33.8 195 90.4 270C154.4 773.2 155.6 641.4 253.6 496.6z" p-id="20394" fill="#2c2c2c"></path><path d="M960 512c0-134.6-59.4-255.2-153.2-337.4l-6.4 1.8c-101.4 37-185.8 134.8-185.8 134.8s76.4 68.4 155.8 185.6c98 144.8 99.2 276.6 99 285.4C926.4 707 960 613.4 960 512z" p-id="20395" fill="#2c2c2c"></path><path d="M402.4 161.8c58.6 26.2 109.2 69.2 109.2 69.2s51-42.8 109.6-69.2c73.6-33 129.8-22.6 144.6-19C693.6 93.2 606.2 64 512 64c-94.2 0-181.6 29.2-253.8 78.8C272.6 139.2 328.6 128.6 402.4 161.8z" p-id="20396" fill="#2c2c2c"></path><path d="M717.4 585.8C624.8 472 511.6 398 511.6 398s-112.6 74-205.4 187.8c-79.6 97.8-109.2 169.6-125.2 215.6l-2.6 9.6c82 91.4 201 149 333.6 149 132.6 0 251.6-57.6 333.6-149l-2.8-9.6C826.8 755.4 797 683.6 717.4 585.8z" p-id="20397" fill="#2c2c2c"></path></svg>